# File created by Blade
# Date/Time:  Wed Apr 08 16:20:06 2015
#---------------------------------------------------------
:version 1.10
:name HOM
:units
  mass 1.0
  length 1.000000
  angle deg
:documentation
     Acclaim Skeleton File
:root
   axis xyz
   order TX TY TZ RX RY RZ
   position 0.000000 0.000000 0.000000
   orientation 0 0 0
:bonedata
   begin
      id 1
      name Spine_dum
      direction 0.000000 1.000000 0.000000
      length 4.885285
      axis 0.0 0.0 0.0 xyz
   end
   begin
      id 2
      name LeftUpLeg_dum
      direction 1.000000 0.000000 0.000000
      length 2.672193
      axis 0.0 0.0 0.0 xyz
   end
   begin
      id 3
      name RightUpLeg_dum
      direction -1.000000 0.000000 0.000000
      length 2.672193
      axis 0.0 0.0 0.0 xyz
   end
   begin
      id 4
      name Spine
      direction 0.000000 1.000000 0.000000
      length 0.000000
      axis 0.0 0.0 0.0 xyz
      dof rx ry rz
   end
   begin
      id 5
      name Spine_dum1
      direction 0.000000 1.000000 0.000000
      length 16.494159
      axis 0.0 0.0 0.0 xyz
   end
   begin
      id 6
      name Spine_dum2
      direction 0.000000 1.000000 0.000000
      length 10.663448
      axis 0.0 0.0 0.0 xyz
   end
   begin
      id 7
      name Spine_dum3
      direction 0.000000 1.000000 0.000000
      length 10.663448
      axis 0.0 0.0 0.0 xyz
   end
   begin
      id 8
      name Head
      direction 0.000000 1.000000 0.000000
      length 4.527550
      axis 0.0 0.0 0.0 xyz
      dof rx ry rz
   end
   begin
      id 9
      name LeftShoulder
      direction 1.000000 0.000000 0.000000
      length 7.531907
      axis 0.0 0.0 -90.0 xyz
      dof rx ry rz
   end
   begin
      id 10
      name LeftArm
      direction 1.000000 0.000000 0.000000
      length 10.229199
      axis 0.0 0.0 -90.0 xyz
      dof rx ry rz
   end
   begin
      id 11
      name LeftForeArm
      direction 1.000000 0.000000 0.000000
      length 8.673495
      axis 0.0 0.0 -90.0 xyz
      dof ry rz rx
   end
   begin
      id 12
      name LeftHand
      direction 0.000000 0.000000 0.000000
      length 0.000000
      axis 0.0 0.0 -90.0 xyz
      dof rx ry rz
   end
   begin
      id 13
      name LeftHand_dum1
      direction 0.000000 0.000000 0.000000
      length 0.000000
      axis 0.0 0.0 -90.0 xyz
   end
   begin
      id 14
      name LeftHand_dum2
      direction 1.000000 0.000000 0.000000
      length 3.937000
      axis 0.0 0.0 -90.0 xyz
   end
   begin
      id 15
      name LeftHandThumb1
      direction 0.000000 0.000000 1.000000
      length 3.937000
      axis 0.0 0.0 -90.0 xyz
      dof rx rz ry
   end
   begin
      id 16
      name RightShoulder
      direction -1.000000 0.000000 0.000000
      length 7.531907
      axis 0.0 0.0 90.0 xyz
      dof rx ry rz
   end
   begin
      id 17
      name RightArm
      direction -1.000000 0.000000 0.000000
      length 10.229199
      axis 0.0 0.0 90.0 xyz
      dof rx ry rz
   end
   begin
      id 18
      name RightForeArm
      direction -1.000000 0.000000 0.000000
      length 8.673495
      axis 0.0 0.0 90.0 xyz
      dof ry rz rx
   end
   begin
      id 19
      name RightHand
      direction 0.000000 0.000000 0.000000
      length 0.000000
      axis 0.0 0.0 90.0 xyz
      dof rx ry rz
   end
   begin
      id 20
      name RightHand_dum1
      direction 0.000000 0.000000 0.000000
      length 0.000000
      axis 0.0 0.0 90.0 xyz
   end
   begin
      id 21
      name RightHand_dum2
      direction -1.000000 0.000000 0.000000
      length 3.937000
      axis 0.0 0.0 90.0 xyz
   end
   begin
      id 22
      name RightHandThumb1
      direction 0.000000 0.000000 1.000000
      length 3.937000
      axis 0.0 0.0 90.0 xyz
      dof rx rz ry
   end
   begin
      id 23
      name LeftUpLeg
      direction 0.000000 -1.000000 0.000000
      length 16.263388
      axis 0.0 0.0 0.0 xyz
      dof rx ry rz
   end
   begin
      id 24
      name LeftLeg
      direction 0.000000 -1.000000 0.000000
      length 14.328163
      axis 0.0 0.0 0.0 xyz
      dof rx ry rz
   end
   begin
      id 25
      name LeftFoot
      direction 0.000000 -0.258819 0.965926
      length 5.031290
      axis 15.0 0.0 0.0 xyz
      dof rx ry rz
   end
   begin
      id 26
      name LeftToeBase
      direction 0.000000 0.000000 1.000000
      length 2.952750
      axis 0.0 0.0 0.0 xyz
      dof rx ry rz
   end
   begin
      id 27
      name RightUpLeg
      direction 0.000000 -1.000000 0.000000
      length 16.263388
      axis 0.0 0.0 0.0 xyz
      dof rx ry rz
   end
   begin
      id 28
      name RightLeg
      direction 0.000000 -1.000000 0.000000
      length 14.328163
      axis 0.0 0.0 0.0 xyz
      dof rx ry rz
   end
   begin
      id 29
      name RightFoot
      direction 0.000000 -0.258819 0.965926
      length 5.031290
      axis 15.0 0.0 0.0 xyz
      dof rx ry rz
   end
   begin
      id 30
      name RightToeBase
      direction 0.000000 0.000000 1.000000
      length 2.952750
      axis 0.0 0.0 0.0 xyz
      dof rx ry rz
   end
:hierarchy
   begin
      root Spine_dum LeftUpLeg_dum RightUpLeg_dum
      Spine_dum Spine
      LeftUpLeg_dum LeftUpLeg
      RightUpLeg_dum RightUpLeg
      Spine Spine_dum1 Spine_dum2 Spine_dum3
      Spine_dum1 Head
      Spine_dum2 LeftShoulder
      Spine_dum3 RightShoulder
      LeftShoulder LeftArm
      LeftArm LeftForeArm
      LeftForeArm LeftHand
      LeftHand LeftHand_dum1 LeftHand_dum2
      LeftHand_dum1 LeftHandThumb1
      RightShoulder RightArm
      RightArm RightForeArm
      RightForeArm RightHand
      RightHand RightHand_dum1 RightHand_dum2
      RightHand_dum1 RightHandThumb1
      LeftUpLeg LeftLeg
      LeftLeg LeftFoot
      LeftFoot LeftToeBase
      RightUpLeg RightLeg
      RightLeg RightFoot
      RightFoot RightToeBase
   end

# File created by Blade
# Date/Time:  Wed Apr 08 16:19:59 2015
# Frame Rate: 120.000 fps
#------------------------------------------------------
:FULLY-SPECIFIED
:DEGREES
114
root 4.404613 32.773695 -3.002719 11.240998 2.854993 -1.202851
Spine -13.955268 -8.040967 -0.074245
Head 18.222598 -11.576306 -0.369961
LeftShoulder -19.323851 37.709747 22.791308
LeftArm 57.405988 -56.033622 -59.620456
LeftForeArm 7.438951 -0.000000 -3.633429
LeftHand 2.156012 -0.000000 2.736163
LeftHandThumb1 -26.253704 0.000000 33.147579
RightShoulder -8.016769 3.977532 -30.918114
RightArm 12.254944 17.942909 42.547630
RightForeArm -8.723907 -0.000000 0.329276
RightHand 2.603105 -0.000000 4.154425
RightHandThumb1 -24.326973 -0.000000 -32.862282
LeftUpLeg -5.208156 -5.319961 1.274807
LeftLeg -4.274604 -0.000000 0.000000
LeftFoot -4.202045 7.734145 -15.705612
LeftToeBase -1.333174 -0.000000 0.000000
RightUpLeg -4.810901 -0.559966 2.170126
RightLeg -3.920641 -0.000000 0.000000
RightFoot -6.366869 -10.266189 8.853018
RightToeBase 3.270612 -0.000000 -0.000000
115
root 4.409773 32.773729 -3.016816 11.150294 2.779145 -1.214233
Spine -13.852670 -8.018352 -0.109850
Head 18.677997 -12.292330 -0.532707
LeftShoulder -19.289113 37.791054 22.762152
LeftArm 57.241211 -55.990553 -59.527321
LeftForeArm 7.587010 -0.000000 -3.472369
LeftHand 2.166767 -0.000000 2.920677
LeftHandThumb1 -26.253704 0.000000 33.147579
RightShoulder -7.969818 3.942956 -30.880117
RightArm 12.289916 17.953270 42.588792
RightForeArm -8.800848 -0.000000 0.382535
RightHand 2.561048 -0.000000 4.063492
RightHandThumb1 -24.326973 -0.000000 -32.862282
LeftUpLeg -5.153684 -5.265137 1.249904
LeftLeg -4.233900 -0.000000 0.000000
LeftFoot -4.238070 7.782866 -15.665422
LeftToeBase -1.300559 -0.000000 0.000000
RightUpLeg -4.756657 -0.496270 2.157313
RightLeg -3.906609 -0.000000 0.000000
RightFoot -6.333437 -10.259511 8.801951
RightToeBase 3.233082 -0.000000 -0.000000
116
root 4.416125 32.773205 -3.031420 11.070916 2.701545 -1.223709
Spine -13.761994 -8.010828 -0.136320
Head 19.151244 -13.042374 -0.721472
LeftShoulder -19.345512 37.984639 22.615693
LeftArm 57.174554 -55.928515 -59.448252
LeftForeArm 7.834574 -0.000000 -3.253460
LeftHand 2.125235 -0.000000 3.329959
LeftHandThumb1 -26.253704 0.000000 33.147579
RightShoulder -7.927279 3.912984 -30.830396
RightArm 12.334776 17.906315 42.616851
RightForeArm -8.834283 -0.000000 0.488945
RightHand 2.546520 -0.000000 3.924815
RightHandThumb1 -24.326973 -0.000000 -32.862282
LeftUpLeg -5.107660 -5.203713 1.220860
LeftLeg -4.198921 -0.000000 0.000000
LeftFoot -4.270254 7.824699 -15.620745
LeftToeBase -1.320294 -0.000000 0.000000
RightUpLeg -4.719093 -0.457308 2.145701
RightLeg -3.880748 -0.000000 0.000000
RightFoot -6.311990 -10.224959 8.728863
RightToeBase 3.218640 -0.000000 -0.000000
117
root 4.423567 32.772718 -3.047201 11.028530 2.628808 -1.255999
Spine -13.711662 -7.964365 -0.124212
Head 19.632892 -13.835067 -0.947357
LeftShoulder -19.326758 38.157198 22.504047
LeftArm 56.923408 -55.797546 -59.205128
LeftForeArm 8.019108 -0.000000 -3.006679
LeftHand 2.088073 -0.000000 3.740474
LeftHandThumb1 -26.253704 0.000000 33.147579
RightShoulder -7.936139 3.786615 -30.780953
RightArm 12.432025 17.882557 42.657965
RightForeArm -8.957952 -0.000000 0.634342
RightHand 2.622260 0.000000 3.760737
RightHandThumb1 -24.326973 -0.000000 -32.862282
LeftUpLeg -5.108378 -5.143010 1.213901
LeftLeg -4.151997 -0.000000 0.000000
LeftFoot -4.321295 7.881083 -15.567377
LeftToeBase -1.293397 -0.000000 0.000000
RightUpLeg -4.758554 -0.487397 2.158781
RightLeg -3.777566 -0.000000 0.000000
RightFoot -6.312924 -10.141432 8.706024
RightToeBase 3.028793 -0.000000 -0.000000
118
root 4.433600 32.771928 -3.065146 11.008452 2.548931 -1.270031
Spine -13.675347 -7.913806 -0.127132
Head 20.122003 -14.700782 -1.195973
LeftShoulder -19.395395 38.440150 22.318558
LeftArm 56.786235 -55.590148 -59.032693
LeftForeArm 8.177092 -0.000000 -2.696155
LeftHand 2.153316 -0.000000 4.377116
LeftHandThumb1 -26.253704 0.000000 33.147579
RightShoulder -7.972006 3.713374 -30.715935
RightArm 12.481033 17.762370 42.673380
RightForeArm -9.092839 -0.000000 0.888671
RightHand 2.672634 -0.000000 3.493753
RightHandThumb1 -24.326973 -0.000000 -32.862282
LeftUpLeg -5.137612 -5.071383 1.183413
LeftLeg -4.100845 -0.000000 0.000000
LeftFoot -4.352976 7.948411 -15.495320
LeftToeBase -1.277957 -0.000000 0.000000
RightUpLeg -4.794076 -0.411615 2.134759
RightLeg -3.735441 -0.000000 0.000000
RightFoot -6.299209 -10.052203 8.682338
RightToeBase 3.115246 -0.000000 -0.000000
119
root 4.444295 32.770771 -3.082797 11.001173 2.472917 -1.291468
Spine -13.647281 -7.854652 -0.123085
Head 20.599150 -15.621516 -1.432504
LeftShoulder -19.455110 38.662864 22.128568
LeftArm 56.469047 -55.284851 -58.648681
LeftForeArm 8.288077 -0.000000 -2.376513
LeftHand 2.222131 0.000000 4.899874
LeftHandThumb1 -26.253704 0.000000 33.147579
RightShoulder -7.990642 3.623509 -30.649326
RightArm 12.475542 17.704258 42.707562
RightForeArm -9.295985 -0.000000 1.203781
RightHand 2.700544 -0.000000 3.230111
RightHandThumb1 -24.326973 -0.000000 -32.862282
LeftUpLeg -5.173477 -5.024142 1.161649
LeftLeg -4.064523 -0.000000 0.000000
LeftFoot -4.392731 8.046145 -15.440836
LeftToeBase -1.276613 -0.000000 0.000000
RightUpLeg -4.844267 -0.334320 2.113531
RightLeg -3.688136 -0.000000 0.000000
RightFoot -6.295332 -9.994185 8.685236
RightToeBase 3.131969 -0.000000 -0.000000
120
root 4.454928 32.770264 -3.101267 11.018783 2.381770 -1.323412
Spine -13.645395 -7.802218 -0.099213
Head 21.099871 -16.556739 -1.682429
LeftShoulder -19.554994 38.871552 21.921348
LeftArm 56.173583 -54.943838 -58.331868
LeftForeArm 8.323545 -0.000000 -2.001171
LeftHand 2.264909 -0.000000 5.515580
LeftHandThumb1 -26.253704 0.000000 33.147579
RightShoulder -8.030504 3.460861 -30.583159
RightArm 12.527030 17.547255 42.796997
RightForeArm -9.444486 -0.000000 1.645604
RightHand 2.621961 -0.000000 2.912138
RightHandThumb1 -24.326973 -0.000000 -32.862282
LeftUpLeg -5.231643 -4.948694 1.146998
LeftLeg -4.035658 -0.000000 0.000000
LeftFoot -4.409231 8.138356 -15.334772
LeftToeBase -1.350343 -0.000000 0.000000
RightUpLeg -4.932536 -0.230723 2.097263
RightLeg -3.615247 -0.000000 0.000000
RightFoot -6.295221 -9.939393 8.705645
RightToeBase 3.081905 -0.000000 -0.000000
121
root 4.465748 32.770951 -3.121645 11.040964 2.286724 -1.350653
Spine -13.642370 -7.763008 -0.080646
Head 21.610856 -17.505757 -1.918024
LeftShoulder -19.686545 39.030125 21.661739
LeftArm 55.832524 -54.564530 -57.983837
LeftForeArm 8.327560 -0.000000 -1.544809
LeftHand 2.454456 0.000000 6.114674
LeftHandThumb1 -26.253704 0.000000 33.147579
RightShoulder -8.072891 3.248369 -30.450460
RightArm 12.627400 17.363188 42.864265
RightForeArm -9.552924 -0.000000 2.120615
RightHand 2.589007 -0.000000 2.475605
RightHandThumb1 -24.326973 -0.000000 -32.862282
LeftUpLeg -5.293251 -4.909909 1.133720
LeftLeg -4.014252 -0.000000 0.000000
LeftFoot -4.436620 8.265909 -15.258541
LeftToeBase -1.326785 -0.000000 0.000000
RightUpLeg -5.036002 -0.123955 2.078428
RightLeg -3.531677 -0.000000 0.000000
RightFoot -6.289951 -9.894413 8.703750
RightToeBase 3.051721 -0.000000 -0.000000
